<svg width="23" height="23" viewBox="0 0 23 23" fill="none" xmlns="http://www.w3.org/2000/svg">
<path d="M22.5375 11.4282C22.5383 13.6414 21.8825 15.8051 20.6533 17.6455C19.4241 19.486 17.6767 20.9205 15.632 21.7676C13.5873 22.6147 11.3374 22.8364 9.16673 22.4045C6.99608 21.9726 5.00233 20.9067 3.43763 19.3415C1.87292 17.7762 0.807612 15.7821 0.376465 13.6113C-0.0546824 11.4405 0.167671 9.19063 1.01546 7.14625C1.86325 5.10188 3.29835 3.35489 5.13921 2.12629C6.98007 0.897688 9.14398 0.242687 11.3572 0.244143C14.3218 0.24804 17.1639 1.42772 19.2599 3.5244C21.3559 5.62107 22.5346 8.46352 22.5375 11.4282ZM11.3572 4.91059C10.0681 4.91059 8.80803 5.29284 7.73622 6.00901C6.66441 6.72517 5.82901 7.74307 5.33571 8.934C4.84241 10.1249 4.71333 11.4354 4.96481 12.6997C5.2163 13.964 5.83706 15.1253 6.74856 16.0368C7.66006 16.9483 8.82136 17.569 10.0856 17.8205C11.3499 18.072 12.6604 17.9429 13.8514 17.4496C15.0423 16.9563 16.0602 16.121 16.7763 15.0491C17.4925 13.9773 17.8747 12.7172 17.8747 11.4282C17.8738 9.69991 17.1868 8.04269 15.9647 6.82062C14.7426 5.59855 13.0854 4.91157 11.3572 4.91059Z" fill="white"/>
</svg>
