<svg width="21" height="23" viewBox="0 0 21 23" fill="none" xmlns="http://www.w3.org/2000/svg">
<path d="M20.2932 0.150391V14.1902C20.3019 15.9758 19.6339 17.6984 18.4237 19.0112C17.9715 19.4928 17.4791 19.9348 16.9516 20.3324C14.7285 22.0121 11.9602 22.8048 9.18499 22.5566C6.4098 22.3083 3.82616 21.0367 1.93652 18.9892C0.729595 17.6748 0.0643612 15.9526 0.0743292 14.1681V0.150391H4.85855V12.4569C4.85726 13.8455 5.3926 15.181 6.35269 16.1843C7.31279 17.1876 8.6234 17.7812 10.0108 17.841H10.4046C11.7923 17.7821 13.1034 17.1888 14.0637 16.1853C15.024 15.1818 15.559 13.8458 15.5568 12.4569V0.150391H20.2932Z" fill="white"/>
</svg>
