<svg width="22" height="23" viewBox="0 0 22 23" fill="none" xmlns="http://www.w3.org/2000/svg">
<path d="M21.1236 11.4272C21.1233 11.9789 21.084 12.5299 21.0058 13.076C20.6424 15.5141 19.4904 17.7661 17.7258 19.4875C15.9612 21.2089 13.6814 22.3048 11.2349 22.6076H0.720703V8.25494H5.50492V17.8234H10.8706C12.3739 17.5859 13.7461 16.8284 14.7481 15.683C15.7502 14.5375 16.3184 13.0768 16.3539 11.5553C16.3894 10.0338 15.8898 8.54816 14.9422 7.35725C13.9947 6.16635 12.6592 5.34574 11.1687 5.03847C10.8412 4.972 10.5089 4.9314 10.1751 4.91703H0.720703V0.132812L10.7124 0.169605C13.5439 0.383244 16.1899 1.65972 18.1195 3.74291C20.0491 5.82611 21.1196 8.56192 21.1162 11.4015L21.1236 11.4272Z" fill="white"/>
</svg>
