<svg width="24" height="24" viewBox="0 0 24 24" fill="none" xmlns="http://www.w3.org/2000/svg">
<path d="M18.5 17.25H5.5C5.21875 17.25 5 17.5 5 17.75V18.25C5 18.5312 5.21875 18.75 5.5 18.75H18.5C18.75 18.75 19 18.5312 19 18.25V17.75C19 17.5 18.75 17.25 18.5 17.25ZM18.5 13.25H5.5C5.21875 13.25 5 13.5 5 13.75V14.25C5 14.5312 5.21875 14.75 5.5 14.75H18.5C18.75 14.75 19 14.5312 19 14.25V13.75C19 13.5 18.75 13.25 18.5 13.25ZM18.5 9.25H5.5C5.21875 9.25 5 9.5 5 9.75V10.25C5 10.5312 5.21875 10.75 5.5 10.75H18.5C18.75 10.75 19 10.5312 19 10.25V9.75C19 9.5 18.75 9.25 18.5 9.25ZM18.5 5.25H5.5C5.21875 5.25 5 5.5 5 5.75V6.25C5 6.53125 5.21875 6.75 5.5 6.75H18.5C18.75 6.75 19 6.53125 19 6.25V5.75C19 5.5 18.75 5.25 18.5 5.25Z" fill="#333333"/>
</svg>
