<svg width="25" height="25" viewBox="0 0 25 25" fill="none" xmlns="http://www.w3.org/2000/svg">
<path d="M12.5 9.45898C12.1562 9.49023 11.8125 9.52148 11.5 9.61523C11.6562 9.86523 11.7188 10.1777 11.75 10.459C11.75 11.4277 10.9375 12.209 10 12.209C9.6875 12.209 9.375 12.1465 9.15625 11.9902C9.0625 12.3027 9 12.6152 9 12.959C9 14.8965 10.5625 16.459 12.5 16.459C14.4375 16.459 16 14.8965 16 12.959C16 11.0527 14.4375 9.49023 12.5 9.49023V9.45898ZM21.375 12.5215C19.6875 9.20898 16.3125 6.95898 12.5 6.95898C8.65625 6.95898 5.28125 9.20898 3.59375 12.5215C3.53125 12.6465 3.5 12.8027 3.5 12.959C3.5 13.1465 3.53125 13.3027 3.59375 13.4277C5.28125 16.7402 8.65625 18.959 12.5 18.959C16.3125 18.959 19.6875 16.7402 21.375 13.4277C21.4375 13.3027 21.4688 13.1465 21.4688 12.9902C21.4688 12.8027 21.4375 12.6465 21.375 12.5215ZM12.5 17.459C9.40625 17.459 6.5625 15.7402 5.0625 12.959C6.5625 10.1777 9.40625 8.45898 12.5 8.45898C15.5625 8.45898 18.4062 10.1777 19.9062 12.959C18.4062 15.7402 15.5625 17.459 12.5 17.459Z" fill="#F2F2F2"/>
</svg>
