<svg width="21" height="21" viewBox="0 0 21 21" fill="none" xmlns="http://www.w3.org/2000/svg">
<path d="M19.875 5.04883C19.875 4.54102 19.4453 4.11133 18.9375 4.11133H2.0625C1.51562 4.11133 1.125 4.54102 1.125 5.04883V5.98633H19.875V5.04883ZM19.25 1.92383C19.25 1.41602 18.8203 0.986328 18.3125 0.986328H2.6875C2.14062 0.986328 1.75 1.41602 1.75 1.92383V2.86133H19.25V1.92383ZM19.25 7.23633H1.75C1.04688 7.23633 0.5 7.82227 0.5 8.48633C0.5 8.52539 0.5 8.56445 0.5 8.60352L1.51562 19.8535C1.55469 20.5176 2.10156 20.9863 2.76562 20.9863H18.1953C18.8594 20.9863 19.4062 20.5176 19.4453 19.8535L20.4609 8.60352C20.4609 8.56445 20.5 8.52539 20.5 8.48633C20.5 7.82227 19.9141 7.23633 19.25 7.23633ZM17.6484 19.1113H3.3125L2.41406 9.11133H18.5469L17.6484 19.1113ZM10.5 18.4863C13.625 18.4863 16.2812 16.7285 16.4375 14.4238C16.5938 12.002 13.9375 9.9707 10.4609 9.9707C7.02344 9.9707 4.36719 12.041 4.52344 14.4238C4.67969 16.7285 7.33594 18.4863 10.5 18.4863ZM10.5 13.7988C11.0469 13.7988 11.5156 14.1504 11.5156 14.541C11.5156 14.9707 11.0469 15.2832 10.5 15.2832C9.91406 15.2832 9.48438 14.9707 9.44531 14.541C9.44531 14.1504 9.91406 13.7988 10.5 13.7988Z" fill="#A4A4A4"/>
</svg>
