<svg width="23" height="18" viewBox="0 0 23 18" fill="none" xmlns="http://www.w3.org/2000/svg">
<path d="M22.5156 8.67383L12.8672 0.744141C12.5156 0.431641 12.0078 0.275391 11.5 0.275391C10.9531 0.275391 10.4453 0.431641 10.0938 0.744141L0.445312 8.67383C0.328125 8.79102 0.25 8.94727 0.25 9.14258C0.25 9.29883 0.289062 9.45508 0.367188 9.5332L0.796875 10.041C0.875 10.1582 1.07031 10.2363 1.26562 10.2363C1.42188 10.2363 1.53906 10.1973 1.65625 10.1191L2.75 9.2207V16.4863C2.75 17.1895 3.29688 17.7363 4 17.7363H9C9.66406 17.7363 10.2109 17.1895 10.25 16.4863V12.4238H12.75V16.4863C12.75 17.1895 13.2969 17.7363 14 17.7363H19C19.6641 17.7363 20.2109 17.1895 20.25 16.5254V9.2207L21.3047 10.1191C21.4219 10.1973 21.5391 10.2754 21.6953 10.2754C21.8906 10.2754 22.0859 10.1582 22.2031 10.041L22.5938 9.5332C22.6719 9.45508 22.75 9.29883 22.75 9.14258C22.75 8.94727 22.6328 8.79102 22.5156 8.67383ZM18.3359 15.8613H14.625V11.7988C14.5859 11.1348 14.0391 10.5879 13.375 10.5488H9.625C8.92188 10.5879 8.375 11.1348 8.375 11.7988V15.8613H4.625V7.69727L11.5 2.0332L18.375 7.69727L18.3359 15.8613Z" fill="#0060D9"/>
</svg>
