<svg width="16" height="15" viewBox="0 0 16 15" fill="none" xmlns="http://www.w3.org/2000/svg">
<path d="M15.7812 12.0002C16.0625 11.7189 16.0625 11.2502 15.7812 10.9377L13.2812 8.71891C12.8125 8.25016 12 8.59391 12 9.25016V10.7502H11.625L9.125 8.06266L7.9375 9.34391L10.75 12.3752C10.8125 12.4689 10.9062 12.5002 11.0312 12.5002H12V13.7502C12 14.4377 12.8125 14.7502 13.2812 14.2814L15.7812 12.0002ZM0.375 4.25016H3.21875L5.71875 6.96891L6.90625 5.65641L4.09375 2.62516C4.03125 2.56266 3.9375 2.50016 3.84375 2.50016H0.375C0.15625 2.50016 0 2.68766 0 2.87516V3.87516C0 4.09391 0.15625 4.25016 0.375 4.25016ZM15.7812 2.96891L13.2812 0.750158C12.8125 0.250158 12 0.593908 12 1.25016V2.50016H11.0312C10.9062 2.50016 10.8125 2.56266 10.75 2.62516L3.21875 10.7502H0.375C0.15625 10.7502 0 10.9377 0 11.1252V12.1252C0 12.3439 0.15625 12.5002 0.375 12.5002H3.84375C3.9375 12.5002 4.03125 12.4689 4.09375 12.4064L11.625 4.25016H12V5.75016C12 6.43766 12.8125 6.78141 13.2812 6.28141L15.7812 4.00016C16.0625 3.71891 16.0625 3.25016 15.7812 2.96891Z" fill="#F2F2F2"/>
</svg>
