<svg width="16" height="15" viewBox="0 0 16 15" fill="none" xmlns="http://www.w3.org/2000/svg">
<path d="M15.0311 4.65686C14.8749 4.46936 14.6249 4.43811 14.4686 4.62561C14.3436 4.71936 14.1874 4.87561 13.9061 5.15686C13.7811 5.28186 13.7811 5.46936 13.8749 5.62561C14.2499 6.15686 14.4686 6.81311 14.4999 7.50061C14.4999 9.31311 12.9686 10.7506 11.1874 10.7506H5.49986V8.75061C5.49986 8.43811 5.09361 8.25061 4.84361 8.50061L2.09361 11.2506C1.93736 11.4069 1.93736 11.6256 2.09361 11.7819L4.84361 14.5319C5.09361 14.7819 5.46861 14.5944 5.49986 14.2506V12.2506H11.1874C13.8124 12.2506 15.9686 10.1569 15.9686 7.53186C15.9999 6.46936 15.6249 5.46936 15.0311 4.65686ZM1.49986 7.53186C1.46861 5.71936 2.99986 4.25061 4.78111 4.25061H10.4999V6.25061C10.4999 6.59436 10.8749 6.78186 11.1249 6.53186L13.8749 3.78186C14.0311 3.62561 14.0311 3.40686 13.8749 3.25061L11.1249 0.500615C10.8749 0.250615 10.4999 0.438115 10.4999 0.750615V2.75061H4.78111C2.15611 2.75061 -0.000139428 4.87561 -0.000139428 7.50061C-0.0313894 8.56311 0.343611 9.56311 0.937361 10.3756C1.09361 10.5631 1.34361 10.5944 1.49986 10.4069C1.62486 10.3131 1.78111 10.1569 2.06236 9.87561C2.18736 9.75061 2.18736 9.56311 2.09361 9.40686C1.71861 8.87561 1.49986 8.21936 1.49986 7.53186Z" fill="#0060D9"/>
</svg>
