<svg width="21" height="21" viewBox="0 0 21 21" fill="none" xmlns="http://www.w3.org/2000/svg">
<path d="M12.3493 7.33984L11.8285 7.86068C11.7243 7.99089 11.7243 8.17318 11.8545 8.30339L13.9378 10.3086H4.97949C4.7972 10.3086 4.66699 10.4648 4.66699 10.6211V11.3503C4.66699 11.5326 4.7972 11.6628 4.97949 11.6628H13.9378L11.8545 13.694C11.7243 13.8242 11.7243 14.0065 11.8285 14.1367L12.3493 14.6576C12.4795 14.7617 12.6618 14.7617 12.792 14.6576L16.2295 11.2201C16.3337 11.0898 16.3337 10.9076 16.2295 10.7773L12.792 7.33984C12.6618 7.23568 12.4795 7.23568 12.3493 7.33984Z" fill="#F2F2F2"/>
</svg>
