<svg width="21" height="20" viewBox="0 0 21 20" fill="none" xmlns="http://www.w3.org/2000/svg">
<path d="M19.8751 6.70418L14.172 5.88387L11.5938 0.688555C11.1642 -0.209883 9.83604 -0.248946 9.36729 0.688555L6.82822 5.88387L1.08604 6.70418C0.0704103 6.86043 -0.320215 8.11043 0.421973 8.85262L4.52354 12.8761L3.54697 18.5401C3.39072 19.5557 4.48447 20.337 5.38291 19.8682L10.5001 17.1729L15.5782 19.8682C16.4767 20.337 17.5704 19.5557 17.4142 18.5401L16.4376 12.8761L20.5392 8.85262C21.2813 8.11043 20.8907 6.86043 19.8751 6.70418ZM14.4063 12.212L15.3438 17.6026L10.5001 15.0636L5.61729 17.6026L6.55479 12.212L2.60947 8.38387L8.03916 7.60262L10.5001 2.68074L12.922 7.60262L18.3517 8.38387L14.4063 12.212Z" fill="#A4A4A4"/>
</svg>
