<svg width="24" height="25" viewBox="0 0 24 25" fill="none" xmlns="http://www.w3.org/2000/svg">
<path d="M17.3125 7.65625C16.9688 7.4375 16.5 7.5625 16.2812 7.90625C16.0625 8.25 16.1562 8.71875 16.5 8.9375C17.75 9.71875 18.5 11.0625 18.5 12.5C18.5 13.9688 17.75 15.3125 16.5 16.0938C16.1562 16.3125 16.0625 16.7812 16.2812 17.125C16.4688 17.4688 16.9375 17.5938 17.3125 17.375C18.9688 16.3125 20 14.5 20 12.5C20 10.5312 18.9688 8.71875 17.3125 7.65625ZM15.5625 10.125C15.1875 9.90625 14.75 10.0312 14.5312 10.4062C14.3438 10.7812 14.4688 11.2188 14.8438 11.4375C15.2188 11.6562 15.5 12.0625 15.5 12.5C15.5 12.9688 15.2188 13.375 14.8438 13.5938C14.4688 13.8125 14.3438 14.25 14.5312 14.625C14.75 15 15.1875 15.125 15.5625 14.9062C16.4375 14.4375 17 13.5 17 12.5C17 11.5312 16.4375 10.5938 15.5625 10.125ZM12.2188 6.5C12.0312 6.5 11.8438 6.59375 11.7188 6.75L8.9375 9.5H5.75C5.3125 9.5 5 9.84375 5 10.25V14.75C5 15.1875 5.3125 15.5 5.75 15.5H8.9375L11.7188 18.2812C11.8438 18.4375 12.0312 18.5 12.2188 18.5C12.625 18.5 13 18.2188 13 17.75V7.28125C13 6.8125 12.625 6.5 12.2188 6.5ZM11.5 15.9688L9.53125 14H6.5V11H9.53125L11.5 9.0625V15.9688Z" fill="#F2F2F2"/>
</svg>
